<svg width="190" height="51" viewBox="0 0 190 51" fill="none" xmlns="http://www.w3.org/2000/svg">
<path d="M53.1764 1.2052V39.7724H47.3574V1.2052H53.1764ZM61.5565 18.5115V23.3889H49.5984V18.5115H61.5565ZM94.5495 20.4888C94.5495 24.6067 93.7963 28.147 92.2897 31.1099C90.7832 34.0601 88.718 36.3325 86.0941 37.9269C83.4828 39.5088 80.5137 40.2997 77.1868 40.2997C73.8473 40.2997 70.8656 39.5088 68.2417 37.9269C65.6304 36.3325 63.5715 34.0539 62.0649 31.091C60.5584 28.1282 59.8051 24.5941 59.8051 20.4888C59.8051 16.371 60.5584 12.8369 62.0649 9.88659C63.5715 6.92375 65.6304 4.65139 68.2417 3.06954C70.8656 1.47512 73.8473 0.677917 77.1868 0.677917C80.5137 0.677917 83.4828 1.47512 86.0941 3.06954C88.718 4.65139 90.7832 6.92375 92.2897 9.88659C93.7963 12.8369 94.5495 16.371 94.5495 20.4888ZM88.787 20.4888C88.787 17.3502 88.2786 14.7075 87.2617 12.5607C86.2573 10.4013 84.8763 8.76925 83.1187 7.66446C81.3737 6.54711 79.3963 5.98844 77.1868 5.98844C74.9646 5.98844 72.981 6.54711 71.236 7.66446C69.4909 8.76925 68.1099 10.4013 67.093 12.5607C66.0886 14.7075 65.5865 17.3502 65.5865 20.4888C65.5865 23.6274 66.0886 26.2764 67.093 28.4358C68.1099 30.5826 69.4909 32.2146 71.236 33.332C72.981 34.4368 74.9646 34.9892 77.1868 34.9892C79.3963 34.9892 81.3737 34.4368 83.1187 33.332C84.8763 32.2146 86.2573 30.5826 87.2617 28.4358C88.2786 26.2764 88.787 23.6274 88.787 20.4888Z" fill="#FF2626"/>
<path d="M94.8249 31.7979C94.8249 38.7537 90.5216 47.0641 85.2132 47.0641C79.9049 47.0641 75.6016 41.4253 75.6016 34.4695C75.6016 27.5137 79.9049 21.8749 85.2132 21.8749C90.5216 21.8749 94.8249 24.8421 94.8249 31.7979Z" fill="#F5F5F5"/>
<path d="M99.1637 34.2887C99.1637 37.583 98.5611 40.4153 97.3558 42.7856C96.1506 45.1458 94.4984 46.9637 92.3993 48.2392C90.3103 49.5047 87.935 50.1374 85.2735 50.1374C82.6019 50.1374 80.2165 49.5047 78.1174 48.2392C76.0284 46.9637 74.3812 45.1408 73.176 42.7705C71.9708 40.4002 71.3682 37.573 71.3682 34.2887C71.3682 30.9944 71.9708 28.1672 73.176 25.8069C74.3812 23.4367 76.0284 21.6188 78.1174 20.3533C80.2165 19.0778 82.6019 18.44 85.2735 18.44C87.935 18.44 90.3103 19.0778 92.3993 20.3533C94.4984 21.6188 96.1506 23.4367 97.3558 25.8069C98.5611 28.1672 99.1637 30.9944 99.1637 34.2887ZM94.5537 34.2887C94.5537 31.7778 94.1469 29.6637 93.3334 27.9462C92.5299 26.2187 91.4251 24.9131 90.019 24.0292C88.623 23.1354 87.0411 22.6884 85.2735 22.6884C83.4957 22.6884 81.9089 23.1354 80.5128 24.0292C79.1168 24.9131 78.012 26.2187 77.1984 27.9462C76.395 29.6637 75.9932 31.7778 75.9932 34.2887C75.9932 36.7996 76.395 38.9188 77.1984 40.6463C78.012 42.3637 79.1168 43.6694 80.5128 44.5633C81.9089 45.4471 83.4957 45.889 85.2735 45.889C87.0411 45.889 88.623 45.4471 90.019 44.5633C91.4251 43.6694 92.5299 42.3637 93.3334 40.6463C94.1469 38.9188 94.5537 36.7996 94.5537 34.2887Z" fill="black"/>
<path d="M123.272 49.7156L112.907 35.8856H109.623V49.7156H104.968V18.8618H109.623V31.8933H111.144L122.805 18.8618H128.485L116.146 32.6767L128.952 49.7156H123.272Z" fill="black"/>
<path d="M133.264 49.7156V18.8618H137.919V32.27H153.301V18.8618H157.971V49.7156H153.301V36.2623H137.919V49.7156H133.264Z" fill="black"/>
<path d="M167.357 49.7156H162.415L173.519 18.8618H178.897L190 49.7156H185.059L176.336 24.4661H176.095L167.357 49.7156ZM168.185 37.6332H184.215V41.5502H168.185V37.6332Z" fill="black"/>
<mask id="mask0_416_744" style="mask-type:luminance" maskUnits="userSpaceOnUse" x="0" y="26" width="18" height="19">
<path d="M0 26.1069H17.8654V44.8488H0V26.1069Z" fill="white"/>
</mask>
<g mask="url(#mask0_416_744)">
<path d="M0.584336 41.6571L17.0009 44.8201C17.0411 44.8278 17.0807 44.8315 17.1205 44.8315C17.2927 44.8315 17.4608 44.7607 17.5939 44.6288C17.7581 44.4666 17.8524 44.228 17.8524 43.9772V27.0114C17.8524 26.5394 17.5245 26.1567 17.1205 26.1567H0.703887C0.299492 26.1567 -0.0283203 26.5394 -0.0283203 27.0114V40.8138C-0.0283203 41.232 0.23088 41.5888 0.584336 41.6571ZM1.43575 27.8661H16.3883V42.9697L1.43575 40.0886V27.8661Z" fill="black"/>
</g>
<mask id="mask1_416_744" style="mask-type:luminance" maskUnits="userSpaceOnUse" x="20" y="26" width="24" height="24">
<path d="M20.2451 26.107H43.1199V49.7155H20.2451V26.107Z" fill="white"/>
</mask>
<g mask="url(#mask1_416_744)">
<path d="M42.3891 26.1568H21.0574C20.653 26.1568 20.3252 26.5394 20.3252 27.0115V44.713C20.3252 45.1312 20.5847 45.4884 20.9382 45.5563L42.2699 49.6626C42.3098 49.6699 42.3493 49.6739 42.3891 49.6739C42.5613 49.6739 42.7294 49.6027 42.8625 49.4709C43.0267 49.3083 43.121 49.07 43.121 48.8193V27.0115C43.121 26.5394 42.7932 26.1568 42.3891 26.1568ZM41.6569 47.8125L21.7893 43.9878V27.8661H41.6569V47.8125Z" fill="black"/>
</g>
<mask id="mask2_416_744" style="mask-type:luminance" maskUnits="userSpaceOnUse" x="0" y="4" width="18" height="20">
<path d="M0 4.8667H17.8654V23.6086H0V4.8667Z" fill="white"/>
</mask>
<g mask="url(#mask2_416_744)">
<path d="M0.703887 23.5628H17.1205C17.5245 23.5628 17.8524 23.1802 17.8524 22.7081V5.74232C17.8524 5.49155 17.7581 5.25291 17.5939 5.09071C17.4299 4.92852 17.2144 4.85935 17.0009 4.89899L0.584336 8.06241C0.23088 8.13076 -0.0283203 8.48751 -0.0283203 8.90574V22.7081C-0.0283203 23.1802 0.299492 23.5628 0.703887 23.5628ZM1.43575 9.63057L16.3883 6.74947V21.8535H1.43575V9.63057Z" fill="black"/>
</g>
<mask id="mask3_416_744" style="mask-type:luminance" maskUnits="userSpaceOnUse" x="20" y="0" width="24" height="24">
<path d="M20.1719 0H43.0467V23.6085H20.1719V0Z" fill="white"/>
</mask>
<g mask="url(#mask3_416_744)">
<path d="M20.251 4.99497V22.7082C20.251 23.1803 20.5788 23.5629 20.9832 23.5629H42.3149C42.719 23.5629 43.0468 23.1803 43.0468 22.7082V0.888715C43.0468 0.637939 42.9525 0.399702 42.7883 0.237102C42.624 0.0745018 42.4071 0.00493162 42.1957 0.0453794L20.864 4.15163C20.5105 4.21959 20.251 4.57674 20.251 4.99497ZM21.715 5.7202L41.5827 1.89546V21.8536H21.715V5.7202Z" fill="black"/>
</g>
<path d="M40.3304 14.2796C39.9264 14.2796 39.5986 14.6622 39.5986 15.1343V19.1584H29.3494C28.945 19.1584 28.6172 19.541 28.6172 20.0131C28.6172 20.4851 28.945 20.8677 29.3494 20.8677H40.3304C40.7348 20.8677 41.0626 20.4851 41.0626 20.0131V15.1343C41.0626 14.6622 40.7348 14.2796 40.3304 14.2796Z" fill="black"/>
</svg>
