<svg width="201" height="54" viewBox="0 0 201 54" fill="none" xmlns="http://www.w3.org/2000/svg">
<path d="M56.2554 1.27498V42.075H50.0995V1.27498H56.2554ZM65.1206 19.5832V24.743H52.4702V19.5832H65.1206ZM100.024 21.675C100.024 26.0313 99.2269 29.7766 97.6331 32.9109C96.0394 36.032 93.8546 38.436 91.0788 40.1227C88.3163 41.7961 85.1753 42.6328 81.6558 42.6328C78.123 42.6328 74.9687 41.7961 72.1929 40.1227C69.4304 38.436 67.2522 36.0254 65.6585 32.891C64.0647 29.7567 63.2679 26.018 63.2679 21.675C63.2679 17.3187 64.0647 13.5801 65.6585 10.459C67.2522 7.32459 69.4304 4.92068 72.1929 3.24724C74.9687 1.56052 78.123 0.717163 81.6558 0.717163C85.1753 0.717163 88.3163 1.56052 91.0788 3.24724C93.8546 4.92068 96.0394 7.32459 97.6331 10.459C99.2269 13.5801 100.024 17.3187 100.024 21.675ZM93.9277 21.675C93.9277 18.3547 93.3898 15.559 92.314 13.2879C91.2515 11.0035 89.7906 9.27694 87.9312 8.10819C86.0851 6.92616 83.9933 6.33514 81.6558 6.33514C79.305 6.33514 77.2066 6.92616 75.3605 8.10819C73.5144 9.27694 72.0534 11.0035 70.9776 13.2879C69.9151 15.559 69.3839 18.3547 69.3839 21.675C69.3839 24.9953 69.9151 27.7977 70.9776 30.082C72.0534 32.3531 73.5144 34.0797 75.3605 35.2617C77.2066 36.4305 79.305 37.0149 81.6558 37.0149C83.9933 37.0149 86.0851 36.4305 87.9312 35.2617C89.7906 34.0797 91.2515 32.3531 92.314 30.082C93.3898 27.7977 93.9277 24.9953 93.9277 21.675Z" fill="#FF2626"/>
<path d="M100.315 33.6388C100.315 40.9973 95.7621 49.7888 90.1464 49.7888C84.5307 49.7888 79.9783 43.8236 79.9783 36.4651C79.9783 29.1065 84.5307 23.1413 90.1464 23.1413C95.7621 23.1413 100.315 26.2803 100.315 33.6388Z" fill="#F5F5F5"/>
<path d="M104.905 36.2738C104.905 39.7588 104.267 42.7551 102.992 45.2626C101.717 47.7595 99.9694 49.6826 97.7488 51.032C95.5388 52.3707 93.026 53.0401 90.2103 53.0401C87.3841 53.0401 84.8606 52.3707 82.64 51.032C80.43 49.6826 78.6875 47.7542 77.4125 45.2467C76.1375 42.7392 75.5 39.7482 75.5 36.2738C75.5 32.7888 76.1375 29.7979 77.4125 27.301C78.6875 24.7935 80.43 22.8704 82.64 21.5316C84.8606 20.1823 87.3841 19.5076 90.2103 19.5076C93.026 19.5076 95.5388 20.1823 97.7488 21.5316C99.9694 22.8704 101.717 24.7935 102.992 27.301C104.267 29.7979 104.905 32.7888 104.905 36.2738ZM100.028 36.2738C100.028 33.6176 99.5975 31.381 98.7369 29.5641C97.8869 27.7366 96.7182 26.3554 95.2306 25.4204C93.7538 24.4748 92.0803 24.0019 90.2103 24.0019C88.3297 24.0019 86.651 24.4748 85.1741 25.4204C83.6972 26.3554 82.5284 27.7366 81.6678 29.5641C80.8178 31.381 80.3928 33.6176 80.3928 36.2738C80.3928 38.9301 80.8178 41.172 81.6678 42.9995C82.5284 44.8163 83.6972 46.1976 85.1741 47.1432C86.651 48.0782 88.3297 48.5457 90.2103 48.5457C92.0803 48.5457 93.7538 48.0782 95.2306 47.1432C96.7182 46.1976 97.8869 44.8163 98.7369 42.9995C99.5975 41.172 100.028 38.9301 100.028 36.2738Z" fill="black"/>
<path d="M130.409 52.5939L119.444 37.9632H115.969V52.5939H111.045V19.9538H115.969V33.7398H117.579L129.915 19.9538H135.923L122.87 34.5685L136.417 52.5939H130.409Z" fill="black"/>
<path d="M140.979 52.5939V19.9538H145.904V34.1382H162.176V19.9538H167.117V52.5939H162.176V38.3617H145.904V52.5939H140.979Z" fill="black"/>
<path d="M177.046 52.5939H171.818L183.564 19.9538H189.254L201 52.5939H195.772L186.545 25.8826H186.29L177.046 52.5939ZM177.922 39.812H194.88V43.9557H177.922V39.812Z" fill="black"/>
<mask id="mask0_410_235" style="mask-type:luminance" maskUnits="userSpaceOnUse" x="0" y="27" width="19" height="21">
<path d="M0 27.6184H18.8997V47.4453H0V27.6184Z" fill="white"/>
</mask>
<g mask="url(#mask0_410_235)">
<path d="M0.617974 44.0689L17.985 47.4151C18.0275 47.4232 18.0693 47.427 18.1115 47.427C18.2937 47.427 18.4715 47.3522 18.6123 47.2127C18.786 47.0411 18.8857 46.7886 18.8857 46.5233V28.5753C18.8857 28.0759 18.5389 27.6711 18.1115 27.6711H0.744447C0.31664 27.6711 -0.0301514 28.0759 -0.0301514 28.5753V43.1768C-0.0301514 43.6192 0.244056 43.9966 0.617974 44.0689ZM1.51868 29.4794H17.3369V45.4574L1.51868 42.4095V29.4794Z" fill="black"/>
</g>
<mask id="mask1_410_235" style="mask-type:luminance" maskUnits="userSpaceOnUse" x="21" y="27" width="25" height="26">
<path d="M21.4181 27.6184H45.6172V52.5938H21.4181V27.6184Z" fill="white"/>
</mask>
<g mask="url(#mask1_410_235)">
<path d="M44.8429 27.6711H22.2762C21.8484 27.6711 21.5016 28.0759 21.5016 28.5753V47.3017C21.5016 47.7441 21.7762 48.1219 22.1501 48.1938L44.7168 52.5378C44.7589 52.5455 44.8007 52.5498 44.8429 52.5498C45.0251 52.5498 45.2029 52.4745 45.3437 52.335C45.5174 52.163 45.6171 51.9109 45.6171 51.6456V28.5753C45.6171 28.0759 45.2703 27.6711 44.8429 27.6711ZM44.0683 50.5806L23.0504 46.5344V29.4794H44.0683V50.5806Z" fill="black"/>
</g>
<mask id="mask2_410_235" style="mask-type:luminance" maskUnits="userSpaceOnUse" x="0" y="5" width="19" height="20">
<path d="M0 5.14844H18.8997V24.9754H0V5.14844Z" fill="white"/>
</mask>
<g mask="url(#mask2_410_235)">
<path d="M0.744447 24.927H18.1115C18.5389 24.927 18.8857 24.5222 18.8857 24.0229V6.07486C18.8857 5.80957 18.786 5.55711 18.6123 5.38553C18.4389 5.21394 18.2108 5.14077 17.985 5.1827L0.617974 8.52927C0.244056 8.60158 -0.0301514 8.97898 -0.0301514 9.42143V24.0229C-0.0301514 24.5222 0.31664 24.927 0.744447 24.927ZM1.51868 10.1882L17.3369 7.14032V23.1188H1.51868V10.1882Z" fill="black"/>
</g>
<mask id="mask3_410_235" style="mask-type:luminance" maskUnits="userSpaceOnUse" x="21" y="0" width="25" height="25">
<path d="M21.3397 0H45.5388V24.9753H21.3397V0Z" fill="white"/>
</mask>
<g mask="url(#mask3_410_235)">
<path d="M21.4232 5.28401V24.0228C21.4232 24.5221 21.77 24.9269 22.1978 24.9269H44.7645C45.192 24.9269 45.5388 24.5221 45.5388 24.0228V0.940022C45.5388 0.674728 45.439 0.422698 45.2653 0.250684C45.0915 0.0786708 44.862 0.0050729 44.6384 0.0478623L22.0717 4.39185C21.6978 4.46373 21.4232 4.84156 21.4232 5.28401ZM22.972 6.05122L43.9899 2.00505V23.1186H22.972V6.05122Z" fill="black"/>
</g>
<path d="M42.6659 15.1063C42.2385 15.1063 41.8917 15.5111 41.8917 16.0105V20.2676H31.0491C30.6213 20.2676 30.2745 20.6724 30.2745 21.1717C30.2745 21.6711 30.6213 22.0759 31.0491 22.0759H42.6659C43.0937 22.0759 43.4405 21.6711 43.4405 21.1717V16.0105C43.4405 15.5111 43.0937 15.1063 42.6659 15.1063Z" fill="black"/>
</svg>
