<svg width="49" height="49" viewBox="0 0 49 49" fill="none" xmlns="http://www.w3.org/2000/svg">
<rect width="49" height="49" rx="10" fill="white"/>
<rect x="10" y="10" width="30" height="30" rx="10" fill="url(#paint0_linear_410_560)"/>
<g clip-path="url(#clip0_410_560)" filter="url(#filter0_i_410_560)">
<path d="M17.9075 24.0511C17.9075 24.0511 25.0991 20.8617 27.5933 19.7386C28.5494 19.2894 31.7918 17.8519 31.7918 17.8519C31.7918 17.8519 33.2883 17.2231 33.1636 18.7504C33.122 19.3793 32.7895 21.5804 32.4569 23.9612C31.9581 27.3303 31.4177 31.0139 31.4177 31.0139C31.4177 31.0139 31.3345 32.0471 30.6279 32.2268C29.9212 32.4064 28.7572 31.5979 28.5494 31.4182C28.3831 31.2834 25.4316 29.2619 24.3508 28.2737C24.0598 28.0042 23.7273 27.4651 24.3924 26.8362C25.8889 25.3538 27.6764 23.512 28.7572 22.3441C29.2561 21.805 29.7549 20.5472 27.6764 22.0745C24.725 24.2757 21.8151 26.3421 21.8151 26.3421C21.8151 26.3421 21.15 26.7913 19.9029 26.387C18.6558 25.9827 17.2008 25.4436 17.2008 25.4436C17.2008 25.4436 16.2032 24.7698 17.9075 24.0511Z" fill="white"/>
</g>
<defs>
<filter id="filter0_i_410_560" x="15.6909" y="15.6911" width="18.293" height="18.7929" filterUnits="userSpaceOnUse" color-interpolation-filters="sRGB">
<feFlood flood-opacity="0" result="BackgroundImageFix"/>
<feBlend mode="normal" in="SourceGraphic" in2="BackgroundImageFix" result="shape"/>
<feColorMatrix in="SourceAlpha" type="matrix" values="0 0 0 0 0 0 0 0 0 0 0 0 0 0 0 0 0 0 127 0" result="hardAlpha"/>
<feOffset dy="0.5"/>
<feGaussianBlur stdDeviation="1.25"/>
<feComposite in2="hardAlpha" operator="arithmetic" k2="-1" k3="1"/>
<feColorMatrix type="matrix" values="0 0 0 0 0 0 0 0 0 0 0 0 0 0 0 0 0 0 0.1 0"/>
<feBlend mode="normal" in2="shape" result="effect1_innerShadow_410_560"/>
</filter>
<linearGradient id="paint0_linear_410_560" x1="12.6423" y1="12.2358" x2="37.6426" y2="39.2686" gradientUnits="userSpaceOnUse">
<stop stop-color="#0088CC"/>
<stop offset="1" stop-color="#0083C5"/>
</linearGradient>
<clipPath id="clip0_410_560">
<rect width="18.2929" height="18.2929" fill="white" transform="translate(15.6909 15.6911)"/>
</clipPath>
</defs>
</svg>
