<svg width="48" height="48" viewBox="0 0 48 48" fill="none" xmlns="http://www.w3.org/2000/svg">
<rect width="48" height="48" rx="24" fill="url(#paint0_linear_140_468)"/>
<path d="M24 37.3846C21.3527 37.3846 18.765 36.5996 16.5639 35.1289C14.3628 33.6582 12.6473 31.5678 11.6342 29.122C10.6212 26.6763 10.3561 23.9851 10.8725 21.3888C11.389 18.7924 12.6638 16.4075 14.5356 14.5356C16.4075 12.6638 18.7924 11.389 21.3888 10.8725C23.9851 10.3561 26.6763 10.6212 29.122 11.6342C31.5678 12.6473 33.6582 14.3628 35.1289 16.5639C36.5996 18.765 37.3846 21.3527 37.3846 24C37.3846 27.5498 35.9744 30.9542 33.4643 33.4643C30.9542 35.9744 27.5498 37.3846 24 37.3846ZM24 12.6745C21.76 12.6745 19.5704 13.3388 17.7079 14.5832C15.8454 15.8277 14.3938 17.5965 13.5366 19.6659C12.6794 21.7354 12.4552 24.0125 12.8921 26.2095C13.3291 28.4064 14.4078 30.4244 15.9917 32.0083C17.5756 33.5922 19.5936 34.6708 21.7905 35.1078C23.9874 35.5448 26.2646 35.3205 28.334 34.4633C30.4035 33.6061 32.1723 32.1545 33.4167 30.2921C34.6612 28.4296 35.3254 26.2399 35.3254 24C35.3254 20.9963 34.1322 18.1156 32.0083 15.9917C29.8843 13.8677 27.0037 12.6745 24 12.6745Z" fill="white"/>
<path d="M29.6625 30.6919C29.527 30.6926 29.3927 30.6667 29.2673 30.6154C29.1418 30.5642 29.0277 30.4887 28.9315 30.3933L23.2688 24.7306C23.1734 24.6343 23.0979 24.5203 23.0467 24.3948C22.9954 24.2694 22.9694 24.135 22.9702 23.9995V15.7629C22.9702 15.4898 23.0787 15.2279 23.2718 15.0348C23.4649 14.8418 23.7268 14.7333 23.9998 14.7333C24.2729 14.7333 24.5348 14.8418 24.7278 15.0348C24.9209 15.2279 25.0294 15.4898 25.0294 15.7629V23.5774L30.3935 28.9313C30.49 29.027 30.5666 29.1409 30.6189 29.2663C30.6712 29.3918 30.6981 29.5264 30.6981 29.6623C30.6981 29.7982 30.6712 29.9328 30.6189 30.0582C30.5666 30.1837 30.49 30.2976 30.3935 30.3933C30.2973 30.4887 30.1832 30.5642 30.0578 30.6154C29.9324 30.6667 29.798 30.6926 29.6625 30.6919Z" fill="white"/>
<defs>
<linearGradient id="paint0_linear_140_468" x1="9.40468e-09" y1="17.3333" x2="48.1434" y2="17.7205" gradientUnits="userSpaceOnUse">
<stop stop-color="#FF2626"/>
<stop offset="1" stop-color="#B40C0C"/>
</linearGradient>
</defs>
</svg>
