<svg width="49" height="49" viewBox="0 0 49 49" fill="none" xmlns="http://www.w3.org/2000/svg">
<rect width="49" height="49" rx="10" fill="white"/>
<rect x="10" y="10" width="30" height="30" rx="10" fill="url(#paint0_linear_410_548)"/>
<g clip-path="url(#clip0_410_548)" filter="url(#filter0_i_410_548)">
<path d="M20.9946 31.5882C20.9946 31.3161 20.9946 31.044 20.9946 30.7719C20.9966 30.7608 20.9962 30.7494 20.9935 30.7384C20.9908 30.7274 20.9858 30.7171 20.979 30.7081C20.9721 30.6991 20.9634 30.6916 20.9535 30.6861C20.9436 30.6805 20.9326 30.6771 20.9213 30.6759C20.2407 30.4843 19.6125 30.143 19.0835 29.6774C18.6981 29.33 18.3772 28.9182 18.1354 28.4609C17.7946 27.8004 17.5678 27.0879 17.4644 26.3531C17.3362 25.4314 17.2917 24.5002 17.3314 23.5706C17.3401 23.1372 17.3625 22.7088 17.4122 22.2754C17.4914 21.4518 17.7011 20.6458 18.0335 19.8869C18.4439 18.9537 19.1884 18.2042 20.1236 17.7827C20.7606 17.4939 21.4307 17.283 22.1192 17.1548C22.7944 17.0281 23.4779 16.9503 24.1645 16.9221C24.7834 16.9004 25.403 16.9095 26.021 16.9492C26.9055 16.9862 27.7819 17.1314 28.6305 17.3814C29.2596 17.5611 29.8581 17.8329 30.4061 18.1878C30.9402 18.551 31.3721 19.0429 31.6612 19.6172C32.0011 20.288 32.2322 21.0076 32.3459 21.7497C32.4197 22.1902 32.4683 22.6346 32.4912 23.0806C32.5236 23.6334 32.5198 24.1887 32.4987 24.739C32.4776 25.2894 32.4304 25.8237 32.362 26.363C32.2756 27.1724 32.0245 27.956 31.6239 28.6666C31.1024 29.5654 30.2671 30.2442 29.2754 30.5749C28.5973 30.8102 27.8971 30.9777 27.1853 31.0748C26.6647 31.1462 26.1428 31.1979 25.6184 31.2188C25.217 31.2373 24.8156 31.2324 24.4143 31.2262C24.1869 31.2262 23.9607 31.2041 23.7346 31.1844C23.7124 31.1802 23.6894 31.1827 23.6686 31.1914C23.6479 31.2002 23.6302 31.2149 23.6178 31.2336C23.1605 31.7778 22.6858 32.3072 22.2074 32.8342C22.1203 32.9303 22.0194 33.0133 21.9079 33.0804C21.8348 33.128 21.7514 33.1578 21.6645 33.1675C21.5775 33.1772 21.4895 33.1666 21.4075 33.1364C21.3255 33.1062 21.2518 33.0573 21.1924 32.9937C21.133 32.9301 21.0895 32.8535 21.0655 32.7701C21.0181 32.6221 20.9946 32.4675 20.9959 32.3121C20.9946 32.0684 20.9946 31.8283 20.9946 31.5882ZM21.5476 32.6212L21.606 32.567L22.6436 31.4257C23.0429 30.9865 23.4417 30.547 23.8402 30.1071C23.8598 30.0802 23.8862 30.059 23.9168 30.0456C23.9473 30.0322 23.9809 30.0271 24.0142 30.0307C24.1496 30.0443 24.2851 30.0492 24.4217 30.0504C24.8939 30.0504 25.3661 30.0504 25.8383 30.0172C26.267 29.9839 26.6945 29.9322 27.1194 29.8657C27.577 29.7868 28.03 29.6837 28.4764 29.5567C29.4705 29.292 30.2396 28.7256 30.723 27.8084C31.0084 27.2445 31.1874 26.6336 31.2511 26.0059C31.3267 25.4143 31.3719 24.8193 31.3866 24.2231C31.4086 23.4743 31.357 22.725 31.2325 21.9861C31.1462 21.4507 30.9908 20.9285 30.7702 20.4323C30.4894 19.8167 30.0918 19.307 29.4792 18.9795C28.5398 18.4771 27.5233 18.2531 26.4758 18.1386C26.1788 18.1065 25.8818 18.0893 25.5836 18.0782C24.9729 18.047 24.361 18.0503 23.7507 18.0881C23.3118 18.1203 22.8753 18.1787 22.4435 18.2629C21.8085 18.3776 21.1941 18.5851 20.6206 18.8785C20.2881 19.045 19.9864 19.266 19.7284 19.5323C19.3102 19.9954 19.0035 20.5464 18.8312 21.1439C18.6269 21.8398 18.5154 22.5592 18.4995 23.2837C18.4595 24.0083 18.4686 24.7347 18.5268 25.458C18.563 25.8885 18.6357 26.3152 18.7443 26.7336C18.9057 27.3855 19.2189 27.991 19.6588 28.5016C20.1337 29.0225 20.7476 29.3997 21.4295 29.59C21.5153 29.6158 21.5538 29.6454 21.5538 29.7414C21.5463 30.096 21.5538 30.4506 21.5538 30.8051L21.5476 32.6212Z" fill="white"/>
<path d="M20.6782 21.6243C20.6695 21.3546 20.8173 21.1589 20.9963 20.9828C21.2323 20.7588 21.4923 20.561 21.7717 20.3931C21.8991 20.3152 22.0505 20.2855 22.1983 20.3095C22.346 20.3335 22.48 20.4095 22.5756 20.5236C22.9137 20.8756 23.2162 21.2595 23.479 21.6698C23.6091 21.8544 23.7074 22.0591 23.7698 22.2756C23.7947 22.36 23.7963 22.4496 23.7745 22.5349C23.7526 22.6202 23.7081 22.6982 23.6455 22.7607C23.5022 22.9001 23.3494 23.0297 23.1882 23.1485C23.107 23.2126 23.0467 23.299 23.0146 23.3968C22.9826 23.4947 22.9803 23.5997 23.0081 23.6988C23.1076 24.1643 23.3331 24.5942 23.6604 24.9423C24.0582 25.4235 24.5707 25.7988 25.1516 26.0344C25.2943 26.1071 25.4579 26.1293 25.6151 26.0972C25.7012 26.0739 25.7777 26.0244 25.8338 25.9556C25.9207 25.846 26.0152 25.7402 26.0935 25.6232C26.195 25.4773 26.35 25.3765 26.5255 25.3422C26.701 25.3079 26.8831 25.3429 27.0329 25.4397C27.4541 25.6819 27.8518 25.9622 28.2208 26.277C28.3078 26.3508 28.3985 26.4222 28.4855 26.4973C28.5884 26.5751 28.6627 26.6842 28.6971 26.8079C28.7314 26.9315 28.7239 27.0629 28.6756 27.1819C28.5988 27.382 28.4869 27.5671 28.3451 27.7286C28.1688 27.9713 27.9442 28.1758 27.6852 28.3294C27.5614 28.4014 27.4223 28.4437 27.279 28.4529C27.1358 28.4621 26.9923 28.4379 26.8602 28.3823C25.8548 27.9813 24.9154 27.4339 24.073 26.7584C23.249 26.0863 22.5289 25.2981 21.9357 24.4191C21.4365 23.6914 21.0394 22.8999 20.7552 22.0663C20.725 21.9654 20.7001 21.8631 20.6807 21.7597C20.6751 21.7147 20.6743 21.6694 20.6782 21.6243Z" fill="white"/>
<path d="M24.9681 20.3142C25.8092 20.3296 26.6182 20.637 27.2541 21.1829C27.8899 21.7287 28.3122 22.4783 28.4474 23.3011C28.5018 23.6002 28.5309 23.9033 28.5344 24.2072C28.5344 24.2786 28.5157 24.3304 28.4387 24.3377C28.3616 24.3451 28.3418 24.2799 28.3418 24.2146C28.3533 23.5998 28.2259 22.9903 27.969 22.4306C27.7526 21.9707 27.432 21.5665 27.0322 21.2494C26.6324 20.9323 26.1642 20.7108 25.6639 20.6023C25.3994 20.5416 25.129 20.5102 24.8575 20.5087C24.831 20.5092 24.8047 20.5058 24.7792 20.4989C24.7575 20.4928 24.739 20.4786 24.7277 20.4593C24.7163 20.44 24.713 20.4171 24.7183 20.3954C24.7185 20.3851 24.7207 20.375 24.7249 20.3656C24.729 20.3561 24.735 20.3476 24.7426 20.3405C24.7501 20.3334 24.7589 20.3278 24.7686 20.3242C24.7783 20.3205 24.7887 20.3188 24.7991 20.3191C24.855 20.3117 24.9122 20.3142 24.9681 20.3142Z" fill="white"/>
<path d="M27.367 23.6532C27.3629 23.3111 27.2779 22.9748 27.1188 22.6712C26.9598 22.3676 26.7311 22.1051 26.4512 21.9049C26.1246 21.6775 25.7448 21.5364 25.3478 21.4949C25.2807 21.4863 25.2136 21.4826 25.1453 21.4752C25.0769 21.4678 25.0359 21.4395 25.0421 21.3705C25.0483 21.3016 25.0918 21.277 25.1664 21.2819C26.2673 21.3484 27.2043 21.9652 27.4925 23.1139C27.5453 23.3354 27.5716 23.5623 27.5708 23.7898C27.5708 23.8108 27.5708 23.8317 27.5708 23.8514C27.5708 23.913 27.5311 23.9536 27.4702 23.9524C27.4567 23.9519 27.4434 23.9487 27.4312 23.943C27.419 23.9373 27.408 23.9292 27.3991 23.9192C27.3901 23.9092 27.3833 23.8974 27.3791 23.8847C27.3749 23.872 27.3733 23.8586 27.3745 23.8452C27.3646 23.7874 27.367 23.7283 27.367 23.6532Z" fill="white"/>
<path d="M25.4381 22.2815C26.042 22.3222 26.4633 22.6152 26.5788 23.2517C26.5929 23.3333 26.6028 23.4154 26.6087 23.498C26.6087 23.5644 26.5938 23.6211 26.5204 23.6211C26.4471 23.6211 26.4223 23.5718 26.4198 23.498C26.4191 23.254 26.3432 23.016 26.2023 22.8159C26.0543 22.6346 25.8417 22.5165 25.6084 22.4859C25.5562 22.4762 25.5035 22.4697 25.4506 22.4662C25.3636 22.4662 25.3151 22.4231 25.3263 22.3566C25.3375 22.2902 25.3897 22.2778 25.4381 22.2815Z" fill="white"/>
</g>
<defs>
<filter id="filter0_i_410_548" x="16.9106" y="16.9106" width="16.2603" height="16.7604" filterUnits="userSpaceOnUse" color-interpolation-filters="sRGB">
<feFlood flood-opacity="0" result="BackgroundImageFix"/>
<feBlend mode="normal" in="SourceGraphic" in2="BackgroundImageFix" result="shape"/>
<feColorMatrix in="SourceAlpha" type="matrix" values="0 0 0 0 0 0 0 0 0 0 0 0 0 0 0 0 0 0 127 0" result="hardAlpha"/>
<feOffset dy="0.5"/>
<feGaussianBlur stdDeviation="1.25"/>
<feComposite in2="hardAlpha" operator="arithmetic" k2="-1" k3="1"/>
<feColorMatrix type="matrix" values="0 0 0 0 0 0 0 0 0 0 0 0 0 0 0 0 0 0 0.1 0"/>
<feBlend mode="normal" in2="shape" result="effect1_innerShadow_410_548"/>
</filter>
<linearGradient id="paint0_linear_410_548" x1="12.6423" y1="12.2358" x2="37.6426" y2="39.2686" gradientUnits="userSpaceOnUse">
<stop stop-color="#754A91"/>
<stop offset="1" stop-color="#54008A"/>
</linearGradient>
<clipPath id="clip0_410_548">
<rect width="16.2604" height="16.2604" fill="white" transform="translate(16.9106 16.9106)"/>
</clipPath>
</defs>
</svg>
