<svg width="49" height="49" viewBox="0 0 49 49" fill="none" xmlns="http://www.w3.org/2000/svg">
<rect width="49" height="49" rx="10" fill="white"/>
<rect x="10" y="10" width="30" height="30" rx="10" fill="url(#paint0_linear_410_566)"/>
<g clip-path="url(#clip0_410_566)" filter="url(#filter0_i_410_566)">
<path d="M15.6909 33.984L17.0022 29.1083C15.9447 27.2089 15.6087 24.9925 16.0559 22.8658C16.5031 20.7391 17.7035 18.8447 19.4369 17.5303C21.1702 16.2159 23.3202 15.5696 25.4923 15.71C27.6645 15.8504 29.713 16.7682 31.2621 18.2948C32.8112 19.8214 33.7568 21.8545 33.9256 24.021C34.0943 26.1876 33.4748 28.3422 32.1808 30.0895C30.8867 31.8368 29.0049 33.0597 26.8806 33.5336C24.7563 34.0076 22.5321 33.7009 20.6161 32.6697L15.6909 33.984ZM20.8535 30.8452L21.1581 31.0256C22.546 31.8468 24.1669 32.1867 25.7684 31.9922C27.3699 31.7976 28.8619 31.0797 30.012 29.9502C31.1622 28.8207 31.9057 27.3432 32.1268 25.7477C32.348 24.1523 32.0343 22.5287 31.2346 21.1299C30.4349 19.731 29.1942 18.6356 27.7058 18.0142C26.2174 17.3928 24.5649 17.2805 23.0059 17.6946C21.4468 18.1087 20.0688 19.0261 19.0865 20.3038C18.1042 21.5814 17.5729 23.1476 17.5753 24.7582C17.574 26.0937 17.9439 27.4033 18.6439 28.5413L18.835 28.8557L18.1019 31.5771L20.8535 30.8452Z" fill="white"/>
<path fill-rule="evenodd" clip-rule="evenodd" d="M28.2464 26.0102C28.0678 25.8664 27.8587 25.7652 27.6351 25.7143C27.4114 25.6634 27.179 25.6641 26.9557 25.7164C26.6201 25.8556 26.4033 26.3813 26.1865 26.6442C26.1407 26.7072 26.0736 26.7514 25.9975 26.7684C25.9215 26.7855 25.8418 26.7743 25.7735 26.7369C24.5449 26.2565 23.5152 25.3756 22.8514 24.2372C22.7948 24.1662 22.768 24.076 22.7767 23.9856C22.7853 23.8952 22.8288 23.8117 22.8979 23.7527C23.1397 23.5137 23.3173 23.2177 23.4141 22.892C23.4356 22.5328 23.3532 22.1749 23.1767 21.8612C23.0402 21.4213 22.7804 21.0296 22.4281 20.7324C22.2464 20.6508 22.0449 20.6235 21.8479 20.6537C21.651 20.6838 21.467 20.7703 21.3181 20.9025C21.0597 21.1251 20.8546 21.4027 20.7179 21.7149C20.5812 22.0271 20.5164 22.3659 20.5282 22.7064C20.529 22.8977 20.5533 23.0881 20.6005 23.2734C20.7204 23.7187 20.9047 24.1441 21.1477 24.5361C21.3231 24.8365 21.5144 25.1272 21.7208 25.4072C22.3917 26.3267 23.2351 27.1073 24.204 27.7059C24.6903 28.0101 25.2099 28.2574 25.7528 28.4429C26.3167 28.6981 26.9394 28.7961 27.5546 28.7264C27.9051 28.6734 28.2372 28.5353 28.5217 28.3241C28.8062 28.1129 29.0343 27.8351 29.186 27.5152C29.2751 27.3219 29.3021 27.1059 29.2634 26.8967C29.1705 26.4689 28.5974 26.2164 28.2464 26.0102Z" fill="white"/>
</g>
<defs>
<filter id="filter0_i_410_566" x="15.6909" y="15.6911" width="18.293" height="18.7929" filterUnits="userSpaceOnUse" color-interpolation-filters="sRGB">
<feFlood flood-opacity="0" result="BackgroundImageFix"/>
<feBlend mode="normal" in="SourceGraphic" in2="BackgroundImageFix" result="shape"/>
<feColorMatrix in="SourceAlpha" type="matrix" values="0 0 0 0 0 0 0 0 0 0 0 0 0 0 0 0 0 0 127 0" result="hardAlpha"/>
<feOffset dy="0.5"/>
<feGaussianBlur stdDeviation="1.25"/>
<feComposite in2="hardAlpha" operator="arithmetic" k2="-1" k3="1"/>
<feColorMatrix type="matrix" values="0 0 0 0 0 0 0 0 0 0 0 0 0 0 0 0 0 0 0.1 0"/>
<feBlend mode="normal" in2="shape" result="effect1_innerShadow_410_566"/>
</filter>
<linearGradient id="paint0_linear_410_566" x1="27.0734" y1="40.8947" x2="13.0488" y2="10" gradientUnits="userSpaceOnUse">
<stop stop-color="#00D95F"/>
<stop offset="1" stop-color="#07FF74"/>
</linearGradient>
<clipPath id="clip0_410_566">
<rect width="18.2929" height="18.2929" fill="white" transform="translate(15.6909 15.6911)"/>
</clipPath>
</defs>
</svg>
