<svg width="49" height="49" viewBox="0 0 49 49" fill="none" xmlns="http://www.w3.org/2000/svg">
<rect width="49" height="49" rx="10" fill="white"/>
<rect x="10" y="10" width="30" height="30" rx="10" fill="url(#paint0_linear_94_48)"/>
<g clip-path="url(#clip0_94_48)" filter="url(#filter0_i_94_48)">
<path d="M17.9075 24.0512C17.9075 24.0512 25.0991 20.8618 27.5933 19.7387C28.5494 19.2895 31.7918 17.852 31.7918 17.852C31.7918 17.852 33.2883 17.2231 33.1636 18.7504C33.122 19.3794 32.7895 21.5805 32.4569 23.9613C31.9581 27.3304 31.4177 31.014 31.4177 31.014C31.4177 31.014 31.3345 32.0472 30.6279 32.2268C29.9212 32.4065 28.7572 31.598 28.5494 31.4183C28.3831 31.2835 25.4316 29.262 24.3508 28.2738C24.0598 28.0042 23.7273 27.4652 24.3924 26.8363C25.8889 25.3539 27.6764 23.5121 28.7572 22.3442C29.2561 21.8051 29.7549 20.5473 27.6764 22.0746C24.725 24.2758 21.8151 26.3422 21.8151 26.3422C21.8151 26.3422 21.15 26.7913 19.9029 26.387C18.6558 25.9828 17.2008 25.4437 17.2008 25.4437C17.2008 25.4437 16.2032 24.7699 17.9075 24.0512Z" fill="white"/>
</g>
<defs>
<filter id="filter0_i_94_48" x="15.6912" y="15.6912" width="18.2928" height="18.7928" filterUnits="userSpaceOnUse" color-interpolation-filters="sRGB">
<feFlood flood-opacity="0" result="BackgroundImageFix"/>
<feBlend mode="normal" in="SourceGraphic" in2="BackgroundImageFix" result="shape"/>
<feColorMatrix in="SourceAlpha" type="matrix" values="0 0 0 0 0 0 0 0 0 0 0 0 0 0 0 0 0 0 127 0" result="hardAlpha"/>
<feOffset dy="0.5"/>
<feGaussianBlur stdDeviation="1.25"/>
<feComposite in2="hardAlpha" operator="arithmetic" k2="-1" k3="1"/>
<feColorMatrix type="matrix" values="0 0 0 0 0 0 0 0 0 0 0 0 0 0 0 0 0 0 0.1 0"/>
<feBlend mode="normal" in2="shape" result="effect1_innerShadow_94_48"/>
</filter>
<linearGradient id="paint0_linear_94_48" x1="12.6423" y1="12.2358" x2="37.6426" y2="39.2686" gradientUnits="userSpaceOnUse">
<stop stop-color="#0088CC"/>
<stop offset="1" stop-color="#0083C5"/>
</linearGradient>
<clipPath id="clip0_94_48">
<rect width="18.2929" height="18.2929" fill="white" transform="translate(15.6912 15.6912)"/>
</clipPath>
</defs>
</svg>
