<svg width="49" height="49" viewBox="0 0 49 49" fill="none" xmlns="http://www.w3.org/2000/svg">
<rect width="49" height="49" rx="10" fill="white"/>
<rect x="10" y="10" width="30" height="30" rx="10" fill="url(#paint0_linear_94_47)"/>
<g clip-path="url(#clip0_94_47)" filter="url(#filter0_i_94_47)">
<path d="M20.9944 31.5882C20.9944 31.3161 20.9944 31.044 20.9944 30.7719C20.9963 30.7608 20.9959 30.7494 20.9932 30.7384C20.9905 30.7274 20.9856 30.7171 20.9787 30.7081C20.9719 30.6991 20.9632 30.6916 20.9533 30.6861C20.9434 30.6805 20.9324 30.6771 20.9211 30.6759C20.2404 30.4843 19.6122 30.143 19.0832 29.6774C18.6978 29.33 18.3769 28.9182 18.1351 28.4609C17.7943 27.8004 17.5675 27.0879 17.4641 26.3531C17.336 25.4314 17.2915 24.5002 17.3312 23.5706C17.3399 23.1372 17.3622 22.7088 17.4119 22.2754C17.4912 21.4518 17.7009 20.6458 18.0332 19.8869C18.4436 18.9537 19.1882 18.2042 20.1233 17.7827C20.7603 17.4939 21.4305 17.283 22.1189 17.1548C22.7941 17.0281 23.4777 16.9503 24.1643 16.9221C24.7832 16.9004 25.4028 16.9095 26.0207 16.9492C26.9052 16.9862 27.7817 17.1314 28.6302 17.3814C29.2593 17.5611 29.8578 17.8329 30.4059 18.1878C30.9399 18.551 31.3718 19.0429 31.6609 19.6172C32.0009 20.288 32.2319 21.0076 32.3456 21.7497C32.4195 22.1902 32.468 22.6346 32.491 23.0806C32.5233 23.6334 32.5196 24.1887 32.4985 24.739C32.4773 25.2894 32.4301 25.8237 32.3618 26.363C32.2754 27.1724 32.0243 27.956 31.6237 28.6666C31.1022 29.5654 30.2669 30.2442 29.2751 30.5749C28.597 30.8102 27.8968 30.9777 27.1851 31.0748C26.6644 31.1462 26.1425 31.1979 25.6181 31.2188C25.2168 31.2373 24.8154 31.2324 24.414 31.2262C24.1866 31.2262 23.9605 31.2041 23.7343 31.1844C23.7121 31.1802 23.6892 31.1827 23.6684 31.1914C23.6476 31.2002 23.6299 31.2149 23.6175 31.2336C23.1602 31.7778 22.6856 32.3072 22.2072 32.8342C22.12 32.9303 22.0191 33.0133 21.9077 33.0804C21.8346 33.128 21.7511 33.1578 21.6642 33.1675C21.5773 33.1772 21.4893 33.1666 21.4073 33.1364C21.3253 33.1062 21.2516 33.0573 21.1922 32.9937C21.1327 32.9301 21.0893 32.8535 21.0652 32.7701C21.0179 32.6221 20.9944 32.4675 20.9956 32.3121C20.9944 32.0684 20.9944 31.8283 20.9944 31.5882ZM21.5473 32.6212L21.6057 32.567L22.6433 31.4257C23.0426 30.9865 23.4415 30.547 23.84 30.1071C23.8595 30.0802 23.886 30.059 23.9165 30.0456C23.9471 30.0322 23.9807 30.0271 24.0139 30.0307C24.1494 30.0443 24.2848 30.0492 24.4215 30.0504C24.8937 30.0504 25.3659 30.0504 25.8381 30.0172C26.2668 29.9839 26.6942 29.9322 27.1192 29.8657C27.5768 29.7868 28.0297 29.6837 28.4761 29.5567C29.4702 29.292 30.2394 28.7256 30.7228 27.8084C31.0081 27.2445 31.1871 26.6336 31.2509 26.0059C31.3264 25.4143 31.3716 24.8193 31.3863 24.2231C31.4084 23.4743 31.3567 22.725 31.2322 21.9861C31.1459 21.4507 30.9906 20.9285 30.77 20.4323C30.4892 19.8167 30.0915 19.307 29.4789 18.9795C28.5395 18.4771 27.5231 18.2531 26.4755 18.1386C26.1785 18.1065 25.8816 18.0893 25.5833 18.0782C24.9727 18.047 24.3608 18.0503 23.7505 18.0881C23.3116 18.1203 22.8751 18.1787 22.4433 18.2629C21.8082 18.3776 21.1939 18.5851 20.6204 18.8785C20.2878 19.045 19.9862 19.266 19.7282 19.5323C19.31 19.9954 19.0032 20.5464 18.831 21.1439C18.6267 21.8398 18.5151 22.5592 18.4992 23.2837C18.4592 24.0083 18.4684 24.7347 18.5266 25.458C18.5628 25.8885 18.6355 26.3152 18.744 26.7336C18.9055 27.3855 19.2187 27.991 19.6586 28.5016C20.1335 29.0225 20.7473 29.3997 21.4293 29.59C21.515 29.6158 21.5536 29.6454 21.5536 29.7414C21.5461 30.096 21.5536 30.4506 21.5536 30.8051L21.5473 32.6212Z" fill="white"/>
<path d="M20.6778 21.6242C20.6691 21.3546 20.817 21.1588 20.9959 20.9828C21.2319 20.7588 21.4919 20.561 21.7713 20.393C21.8987 20.3152 22.0502 20.2855 22.1979 20.3095C22.3456 20.3335 22.4796 20.4095 22.5753 20.5235C22.9133 20.8756 23.2159 21.2595 23.4786 21.6698C23.6088 21.8543 23.707 22.059 23.7694 22.2755C23.7943 22.36 23.796 22.4496 23.7741 22.5349C23.7523 22.6202 23.7077 22.6981 23.6452 22.7606C23.5018 22.9 23.349 23.0296 23.1879 23.1485C23.1067 23.2126 23.0463 23.2989 23.0143 23.3968C22.9822 23.4946 22.9799 23.5997 23.0077 23.6988C23.1072 24.1643 23.3327 24.5942 23.6601 24.9423C24.0578 25.4234 24.5703 25.7988 25.1512 26.0344C25.2939 26.1071 25.4575 26.1293 25.6147 26.0972C25.7008 26.0739 25.7773 26.0244 25.8334 25.9556C25.9204 25.846 26.0148 25.7401 26.0931 25.6232C26.1946 25.4773 26.3497 25.3764 26.5252 25.3422C26.7006 25.3079 26.8827 25.3429 27.0325 25.4397C27.4537 25.6819 27.8514 25.9621 28.2204 26.2769C28.3074 26.3508 28.3981 26.4222 28.4851 26.4973C28.588 26.5751 28.6624 26.6842 28.6967 26.8078C28.7311 26.9315 28.7235 27.0629 28.6752 27.1819C28.5985 27.382 28.4866 27.567 28.3447 27.7285C28.1684 27.9713 27.9439 28.1758 27.6849 28.3293C27.5611 28.4014 27.422 28.4437 27.2787 28.4529C27.1354 28.4621 26.9919 28.4379 26.8598 28.3823C25.8544 27.9812 24.915 27.4339 24.0726 26.7583C23.2486 26.0862 22.5286 25.2981 21.9353 24.4191C21.4362 23.6913 21.039 22.8998 20.7548 22.0662C20.7246 21.9654 20.6997 21.8631 20.6803 21.7597C20.6748 21.7147 20.6739 21.6693 20.6778 21.6242Z" fill="white"/>
<path d="M24.9678 20.3142C25.809 20.3296 26.618 20.6371 27.2538 21.1829C27.8897 21.7288 28.312 22.4784 28.4471 23.3011C28.5016 23.6003 28.5307 23.9034 28.5341 24.2073C28.5341 24.2787 28.5155 24.3304 28.4384 24.3378C28.3614 24.3452 28.3415 24.2799 28.3415 24.2147C28.3531 23.5999 28.2257 22.9904 27.9687 22.4307C27.7523 21.9708 27.4318 21.5666 27.032 21.2494C26.6322 20.9323 26.164 20.7109 25.6637 20.6023C25.3992 20.5417 25.1287 20.5103 24.8572 20.5088C24.8308 20.5092 24.8044 20.5059 24.779 20.4989C24.7573 20.4929 24.7388 20.4787 24.7274 20.4594C24.7161 20.4401 24.7127 20.4172 24.7181 20.3955C24.7182 20.3852 24.7205 20.375 24.7246 20.3656C24.7288 20.3562 24.7348 20.3477 24.7423 20.3406C24.7498 20.3335 24.7587 20.3279 24.7684 20.3242C24.7781 20.3206 24.7885 20.3188 24.7988 20.3192C24.8548 20.3118 24.9119 20.3142 24.9678 20.3142Z" fill="white"/>
<path d="M27.3666 23.6532C27.3624 23.3111 27.2774 22.9748 27.1183 22.6712C26.9593 22.3676 26.7307 22.1051 26.4508 21.9048C26.1241 21.6775 25.7443 21.5364 25.3473 21.4949C25.2802 21.4862 25.2131 21.4825 25.1448 21.4752C25.0764 21.4678 25.0354 21.4395 25.0416 21.3705C25.0478 21.3016 25.0913 21.2769 25.1659 21.2819C26.2668 21.3483 27.2038 21.9652 27.4921 23.1139C27.5448 23.3354 27.5711 23.5622 27.5703 23.7898C27.5703 23.8107 27.5703 23.8317 27.5703 23.8514C27.5703 23.9129 27.5306 23.9536 27.4697 23.9523C27.4562 23.9519 27.4429 23.9487 27.4307 23.943C27.4185 23.9373 27.4076 23.9292 27.3986 23.9192C27.3896 23.9091 27.3828 23.8974 27.3786 23.8847C27.3744 23.872 27.3728 23.8586 27.374 23.8452C27.3641 23.7874 27.3666 23.7283 27.3666 23.6532Z" fill="white"/>
<path d="M25.4376 22.2816C26.0416 22.3222 26.4628 22.6153 26.5784 23.2518C26.5924 23.3333 26.6023 23.4155 26.6082 23.498C26.6082 23.5645 26.5933 23.6211 26.52 23.6211C26.4466 23.6211 26.4218 23.5719 26.4193 23.498C26.4186 23.254 26.3427 23.0161 26.2018 22.8159C26.0538 22.6347 25.8412 22.5166 25.6079 22.486C25.5557 22.4763 25.503 22.4697 25.4501 22.4663C25.3631 22.4663 25.3146 22.4232 25.3258 22.3567C25.337 22.2902 25.3892 22.2779 25.4376 22.2816Z" fill="white"/>
</g>
<defs>
<filter id="filter0_i_94_47" x="16.9106" y="16.9106" width="16.2604" height="16.7604" filterUnits="userSpaceOnUse" color-interpolation-filters="sRGB">
<feFlood flood-opacity="0" result="BackgroundImageFix"/>
<feBlend mode="normal" in="SourceGraphic" in2="BackgroundImageFix" result="shape"/>
<feColorMatrix in="SourceAlpha" type="matrix" values="0 0 0 0 0 0 0 0 0 0 0 0 0 0 0 0 0 0 127 0" result="hardAlpha"/>
<feOffset dy="0.5"/>
<feGaussianBlur stdDeviation="1.25"/>
<feComposite in2="hardAlpha" operator="arithmetic" k2="-1" k3="1"/>
<feColorMatrix type="matrix" values="0 0 0 0 0 0 0 0 0 0 0 0 0 0 0 0 0 0 0.1 0"/>
<feBlend mode="normal" in2="shape" result="effect1_innerShadow_94_47"/>
</filter>
<linearGradient id="paint0_linear_94_47" x1="12.6423" y1="12.2358" x2="37.6426" y2="39.2686" gradientUnits="userSpaceOnUse">
<stop stop-color="#754A91"/>
<stop offset="1" stop-color="#54008A"/>
</linearGradient>
<clipPath id="clip0_94_47">
<rect width="16.2604" height="16.2604" fill="white" transform="translate(16.9106 16.9106)"/>
</clipPath>
</defs>
</svg>
