<svg width="49" height="49" viewBox="0 0 49 49" fill="none" xmlns="http://www.w3.org/2000/svg">
<rect width="49" height="49" rx="10" fill="white"/>
<rect x="10" y="10" width="30" height="30" rx="10" fill="url(#paint0_linear_94_49)"/>
<g clip-path="url(#clip0_94_49)" filter="url(#filter0_i_94_49)">
<path d="M15.6912 33.9841L17.0025 29.1083C15.9449 27.209 15.6089 24.9926 16.0562 22.8659C16.5034 20.7391 17.7038 18.8448 19.4371 17.5303C21.1705 16.2159 23.3205 15.5696 25.4926 15.71C27.6647 15.8505 29.7133 16.7682 31.2623 18.2948C32.8114 19.8214 33.7571 21.8545 33.9258 24.0211C34.0946 26.1876 33.4751 28.3422 32.181 30.0895C30.8869 31.8369 29.0051 33.0597 26.8808 33.5337C24.7566 34.0076 22.5323 33.7009 20.6163 32.6698L15.6912 33.9841ZM20.8538 30.8452L21.1584 31.0256C22.5462 31.8469 24.1672 32.1867 25.7686 31.9922C27.3701 31.7977 28.8622 31.0797 30.0123 29.9503C31.1624 28.8208 31.906 27.3432 32.1271 25.7478C32.3482 24.1524 32.0345 22.5287 31.2348 21.1299C30.4352 19.7311 29.1944 18.6356 27.706 18.0142C26.2176 17.3929 24.5652 17.2805 23.0061 17.6946C21.4471 18.1088 20.069 19.0262 19.0867 20.3038C18.1045 21.5815 17.5731 23.1476 17.5755 24.7583C17.5742 26.0937 17.9442 27.4034 18.6442 28.5414L18.8352 28.8558L18.1021 31.5771L20.8538 30.8452Z" fill="white"/>
<path fill-rule="evenodd" clip-rule="evenodd" d="M28.2465 26.0102C28.0679 25.8664 27.8589 25.7652 27.6352 25.7143C27.4115 25.6634 27.1792 25.6641 26.9558 25.7164C26.6203 25.8556 26.4034 26.3813 26.1866 26.6442C26.1409 26.7072 26.0737 26.7514 25.9976 26.7684C25.9216 26.7855 25.8419 26.7743 25.7736 26.7369C24.545 26.2565 23.5153 25.3756 22.8515 24.2372C22.7949 24.1662 22.7681 24.076 22.7768 23.9856C22.7855 23.8952 22.8289 23.8117 22.898 23.7527C23.1398 23.5137 23.3174 23.2177 23.4143 22.892C23.4358 22.5328 23.3533 22.1749 23.1768 21.8612C23.0403 21.4213 22.7805 21.0296 22.4282 20.7324C22.2465 20.6508 22.045 20.6235 21.848 20.6537C21.6511 20.6838 21.4671 20.7703 21.3182 20.9025C21.0598 21.1251 20.8547 21.4027 20.718 21.7149C20.5813 22.0271 20.5165 22.3659 20.5284 22.7064C20.5292 22.8977 20.5534 23.0881 20.6006 23.2734C20.7205 23.7187 20.9049 24.1441 21.1479 24.5361C21.3232 24.8365 21.5145 25.1272 21.7209 25.4072C22.3918 26.3267 23.2352 27.1073 24.2041 27.7059C24.6904 28.0101 25.2101 28.2574 25.7529 28.4429C26.3169 28.6981 26.9395 28.7961 27.5547 28.7264C27.9052 28.6734 28.2373 28.5353 28.5218 28.3241C28.8063 28.1129 29.0344 27.8351 29.1861 27.5152C29.2752 27.3219 29.3023 27.1059 29.2635 26.8967C29.1706 26.4689 28.5975 26.2164 28.2465 26.0102Z" fill="white"/>
</g>
<defs>
<filter id="filter0_i_94_49" x="15.6912" y="15.6912" width="18.2928" height="18.7928" filterUnits="userSpaceOnUse" color-interpolation-filters="sRGB">
<feFlood flood-opacity="0" result="BackgroundImageFix"/>
<feBlend mode="normal" in="SourceGraphic" in2="BackgroundImageFix" result="shape"/>
<feColorMatrix in="SourceAlpha" type="matrix" values="0 0 0 0 0 0 0 0 0 0 0 0 0 0 0 0 0 0 127 0" result="hardAlpha"/>
<feOffset dy="0.5"/>
<feGaussianBlur stdDeviation="1.25"/>
<feComposite in2="hardAlpha" operator="arithmetic" k2="-1" k3="1"/>
<feColorMatrix type="matrix" values="0 0 0 0 0 0 0 0 0 0 0 0 0 0 0 0 0 0 0.1 0"/>
<feBlend mode="normal" in2="shape" result="effect1_innerShadow_94_49"/>
</filter>
<linearGradient id="paint0_linear_94_49" x1="27.0734" y1="40.8947" x2="13.0488" y2="10" gradientUnits="userSpaceOnUse">
<stop stop-color="#00D95F"/>
<stop offset="1" stop-color="#07FF74"/>
</linearGradient>
<clipPath id="clip0_94_49">
<rect width="18.2929" height="18.2929" fill="white" transform="translate(15.6912 15.6912)"/>
</clipPath>
</defs>
</svg>
